<svg width="182" height="182" viewBox="0 0 182 182" fill="none" xmlns="http://www.w3.org/2000/svg">
<circle cx="91" cy="91" r="36" fill="#8599FF"/>
<path fill-rule="evenodd" clip-rule="evenodd" d="M153.648 93.5008C161.548 104.882 167.725 116.03 171.945 126.338C176.242 136.832 178.454 146.315 178.491 154.21C178.528 162.089 176.411 168.147 172.319 172.239C168.227 176.332 162.168 178.449 154.289 178.412C146.394 178.374 136.912 176.163 126.417 171.866C116.119 167.649 104.983 161.48 93.6119 153.59C104.406 145.792 115.325 136.516 125.88 125.96C136.498 115.342 145.822 104.357 153.648 93.5008ZM151.818 90.9044C143.977 101.886 134.555 113.043 123.759 123.839C113.026 134.572 101.936 143.947 91.0159 151.761C80.0603 143.931 68.9305 134.528 58.1612 123.759C47.3919 112.99 37.9893 101.86 30.1589 90.9044C37.9734 79.9848 47.3487 68.894 58.0815 58.1612C68.8769 47.3657 80.0346 37.9437 91.0159 30.1019C101.961 37.9278 113.08 47.3226 123.839 58.0815C134.598 68.8404 143.992 79.9591 151.818 90.9044ZM155.493 90.9033C180.286 126.262 188.96 159.841 174.44 174.361C159.925 188.876 126.364 180.212 91.017 155.438C55.6286 180.273 22.0106 188.971 7.48004 174.44C-7.05057 159.91 1.6472 126.292 26.4827 90.9033C1.70829 55.5567 -6.95533 21.9951 7.55972 7.48002C22.0794 -7.03968 55.6579 1.63415 91.017 26.4268C126.334 1.69527 159.856 -6.94442 174.361 7.55972C188.865 22.0638 180.225 55.5859 155.493 90.9033ZM93.6135 28.2741C104.956 20.4112 116.064 14.2614 126.338 10.0545C136.832 5.75752 146.315 3.54608 154.21 3.50876C162.089 3.47151 168.147 5.58872 172.239 9.68104C176.332 13.7734 178.449 19.8315 178.412 27.7108C178.374 35.6055 176.163 45.0882 171.866 55.5826C167.659 65.8567 161.509 76.9644 153.646 88.3068C145.837 77.4873 136.541 66.5411 125.96 55.9601C115.379 45.3792 104.433 36.0834 93.6135 28.2741ZM88.4195 28.2726C77.0379 20.3723 65.8908 14.1956 55.5826 9.97483C45.0882 5.67782 35.6055 3.46639 27.7108 3.42907C19.8315 3.39182 13.7734 5.50902 9.68104 9.60134C5.58872 13.6937 3.47152 19.7518 3.50877 27.6311C3.54609 35.5258 5.75753 45.0085 10.0545 55.5029C14.2714 65.8016 20.4406 76.9377 28.3305 88.3084C36.1281 77.5143 45.4046 66.5954 55.9602 56.0398C66.5779 45.4222 77.5633 36.0986 88.4195 28.2726ZM28.329 93.4993C20.4017 104.909 14.2057 116.085 9.97485 126.417C5.67784 136.912 3.4664 146.394 3.42909 154.289C3.39184 162.168 5.50904 168.227 9.60136 172.319C13.6937 176.411 19.7518 178.528 27.6311 178.491C35.5258 178.454 45.0086 176.242 55.5029 171.945C65.8356 167.715 77.0112 161.519 88.421 153.591C77.5902 145.777 66.6321 136.473 56.0398 125.88C45.4476 115.288 36.1433 104.33 28.329 93.4993Z" fill="white"/>
</svg>
