<svg version="1.1" xmlns="http://www.w3.org/2000/svg" width="160" height="128">
    <path
        d="M0 0 C1.32 0 2.64 0 4 0 C4.10582092 5.86718226 3.9973642 11.65071677 3.5 17.5 C2.30942206 32.03014655 2.30942206 32.03014655 6 46 C16.03820951 49.34606984 24.35884568 45.28748171 33.3515625 40.8359375 C33.89554688 40.56007812 34.43953125 40.28421875 35 40 C34.52752106 44.31393816 31.74829898 46.77096068 28.875 49.75 C28.08452271 50.5867627 28.08452271 50.5867627 27.27807617 51.44042969 C26.13228503 52.65297402 24.98364187 53.86282815 23.83251953 55.0703125 C21.93680531 57.06654554 20.05832514 59.07780755 18.18359375 61.09375 C12.27219239 67.44518755 6.36541667 73.78009722 0.125 79.8125 C-1.74718439 81.73974864 -3.49903722 83.71308331 -5.25390625 85.74609375 C-8.97734121 90.03106993 -12.91306694 94.06135199 -16.9375 98.0625 C-17.60201172 98.73087891 -18.26652344 99.39925781 -18.95117188 100.08789062 C-35.08491146 116.19033294 -35.08491146 116.19033294 -43.5 120.1875 C-51.61052668 119.5792105 -58.41971583 111.20127643 -64 106 C-65.48998666 104.64994595 -66.97999105 103.29991096 -68.47094727 101.95092773 C-75.73351755 95.35628664 -82.93652699 88.65738995 -89.3125 81.1875 C-93.04675213 76.81461093 -97.14247456 72.83088298 -101.22827148 68.79125977 C-104.80173256 65.24263955 -108.19297317 61.60679399 -111.453125 57.765625 C-113.10302662 55.88240396 -114.83961856 54.1298621 -116.625 52.375 C-119.64903469 49.37833214 -122.49161433 46.44903029 -125 43 C-124.67 42.01 -124.34 41.02 -124 40 C-123.27296875 40.47050781 -122.5459375 40.94101562 -121.796875 41.42578125 C-114.27584916 46.08303187 -105.23310398 51.52773925 -96 49.5 C-92.58157526 47.79078763 -91.03639755 46.21124228 -89 43 C-88.04831317 40.14493951 -87.8099054 38.09062718 -87.68359375 35.11328125 C-87.62075195 33.7065918 -87.62075195 33.7065918 -87.55664062 32.27148438 C-87.51732422 31.29501953 -87.47800781 30.31855469 -87.4375 29.3125 C-87.37272461 27.83040039 -87.37272461 27.83040039 -87.30664062 26.31835938 C-87.20058346 23.87904454 -87.09852286 21.43962887 -87 19 C-85.68 19 -84.36 19 -83 19 C-81.99642336 21.54030337 -80.99646165 24.08190266 -80 26.625 C-79.68675781 27.42389648 -79.37351563 28.22279297 -79.05078125 29.04589844 C-76.93859294 34.47455634 -74.942359 39.93465657 -73.00170898 45.42675781 C-66.27431404 66.32159869 -66.27431404 66.32159869 -52.09765625 82.21484375 C-47.56906324 84.30427379 -43.78882003 84.20812576 -39.03125 82.84765625 C-35.79222471 81.49598608 -34.16545652 79.75071504 -32 77 C-31.33097656 76.17822266 -31.33097656 76.17822266 -30.6484375 75.33984375 C-27.04025618 70.48712931 -24.64904103 65.20581959 -22.32421875 59.6640625 C-21.80624222 58.43067139 -21.80624222 58.43067139 -21.27780151 57.17236328 C-16.92294304 46.61745266 -13.29536058 35.80707759 -9.625 25 C-8.56110971 21.87629856 -7.49524423 18.7533238 -6.42416382 15.63208008 C-5.76534615 13.71153869 -5.11070503 11.789558 -4.46084595 9.8659668 C-4.16648651 9.00656494 -3.87212708 8.14716309 -3.56884766 7.26171875 C-3.31318024 6.50850342 -3.05751282 5.75528809 -2.7940979 4.97924805 C-2 3 -2 3 0 0 Z "
        fill="#68D28A" transform="translate(125,4)" />
    <path
        d="M0 0 C4.84962283 2.56744738 8.10164019 5.08451709 12 9 C14.11578554 10.79568133 16.30297528 12.49270505 18.5 14.1875 C19.11456055 14.66525879 19.72912109 15.14301758 20.36230469 15.63525391 C21.63028511 16.61990674 22.89949107 17.60298342 24.16992188 18.58447266 C25.84169735 19.87755619 27.50769641 21.17763361 29.171875 22.48046875 C32.42841736 25.01379422 35.7054742 27.51640745 39 30 C39.68610352 30.51884766 40.37220703 31.03769531 41.07910156 31.57226562 C60.14286341 46.67653485 60.14286341 46.67653485 83.0390625 52.4609375 C94.53632244 50.67112659 104.96256747 41.85987976 114 35 C114.65339355 34.50725586 115.30678711 34.01451172 115.97998047 33.50683594 C125.09516374 26.62425301 134.10657477 19.60590643 143.11230469 12.58105469 C143.82418945 12.02579102 144.53607422 11.47052734 145.26953125 10.8984375 C145.89448486 10.41036621 146.51943848 9.92229492 147.16333008 9.41943359 C147.76943115 8.95102051 148.37553223 8.48260742 149 8 C149.69569092 7.44521973 150.39138184 6.89043945 151.1081543 6.31884766 C153 5 153 5 155 5 C155.268125 4.360625 155.53625 3.72125 155.8125 3.0625 C157 1 157 1 160 0 C159.52752106 4.31393816 156.74829898 6.77096068 153.875 9.75 C153.08452271 10.5867627 153.08452271 10.5867627 152.27807617 11.44042969 C151.13228503 12.65297402 149.98364187 13.86282815 148.83251953 15.0703125 C146.93680531 17.06654554 145.05832514 19.07780755 143.18359375 21.09375 C137.27219239 27.44518755 131.36541667 33.78009722 125.125 39.8125 C123.25281561 41.73974864 121.50096278 43.71308331 119.74609375 45.74609375 C116.02265879 50.03106993 112.08693306 54.06135199 108.0625 58.0625 C107.39798828 58.73087891 106.73347656 59.39925781 106.04882812 60.08789062 C89.91508854 76.19033294 89.91508854 76.19033294 81.5 80.1875 C73.38947332 79.5792105 66.58028417 71.20127643 61 66 C59.51001334 64.64994595 58.02000895 63.29991096 56.52905273 61.95092773 C49.26648245 55.35628664 42.06347301 48.65738995 35.6875 41.1875 C31.95324787 36.81461093 27.85752544 32.83088298 23.77172852 28.79125977 C20.19826744 25.24263955 16.80702683 21.60679399 13.546875 17.765625 C11.89697338 15.88240396 10.16038144 14.1298621 8.375 12.375 C5.35196899 9.38608898 2.55374591 6.40499454 0 3 C0 2.01 0 1.02 0 0 Z "
        fill="#475466" transform="translate(0,44)" />
    <path
        d="M0 0 C2.57866282 0.6298701 3.70080431 1.22910257 5.5078125 3.14453125 C7.67703854 7.12144566 8.11234957 9.12374914 7.3828125 13.58203125 C5.58718845 16.33532146 4.33026328 18.10830586 1.3828125 19.58203125 C-5.70677588 20.16314505 -5.70677588 20.16314505 -9.5546875 17.70703125 C-12.16916305 15.01332917 -12.55774889 14.0971659 -12.9921875 10.33203125 C-12.61915032 6.60165947 -11.97892589 4.45547395 -9.375 1.6953125 C-6.34537534 -0.22344978 -3.51023028 -0.22528344 0 0 Z "
        fill="#000000" transform="translate(82.6171875,63.41796875)" />
</svg>